<svg
   width="132mm"
   height="16mm"
   viewBox="0 0 132 16"
   version="1.1"
   id="svg5"
   inkscape:version="1.1.2 (0a00cf5339, 2022-02-04)"
   sodipodi:docname="headerlogo.svg"
   xmlns:inkscape="http://www.inkscape.org/namespaces/inkscape"
   xmlns:sodipodi="http://sodipodi.sourceforge.net/DTD/sodipodi-0.dtd"
   xmlns="http://www.w3.org/2000/svg"
   xmlns:svg="http://www.w3.org/2000/svg">
  <sodipodi:namedview
     id="namedview7"
     pagecolor="#ffffff"
     bordercolor="#666666"
     borderopacity="1.0"
     inkscape:pageshadow="2"
     inkscape:pageopacity="0.0"
     inkscape:pagecheckerboard="0"
     inkscape:document-units="mm"
     showgrid="false"
     inkscape:zoom="0.69664703"
     inkscape:cx="428.48098"
     inkscape:cy="480.15708"
     inkscape:window-width="1850"
     inkscape:window-height="1016"
     inkscape:window-x="0"
     inkscape:window-y="0"
     inkscape:window-maximized="1"
     inkscape:current-layer="layer1" />
  <defs
     id="defs2" />
  <g
     inkscape:label="Layer 1"
     inkscape:groupmode="layer"
     id="layer1">
    <path
       style="fill:#000000;stroke-width:0.264583"
       d="m 107.0044,14.491073 c -2.45086,-0.57742 -4.19835,-2.16665 -4.6978,-4.27237 -0.14561,-0.6138798 -0.2127,-0.11752 -0.23195,1.71598 l -0.0271,2.57968 h -2.116667 -2.116671 v -2.38125 -2.3812498 h -1.71979 -1.71979 v 2.3812498 2.38125 h -2.11667 -2.11666 V 8.0320732 1.5497822 h 2.11666 2.11667 v 2.248958 2.248959 h 1.71979 1.71979 v -2.248959 -2.248958 h 2.116671 2.116667 l 0.0177,2.711979 c 0.0171,2.625603 0.0287,2.676921 0.36195,1.611246 0.53086,-1.697437 1.3471,-2.635238 3.00017,-3.446993 1.32001,-0.648205 1.8214,-0.74394 3.89622,-0.74394 2.87528,0 4.07649,0.384051 5.60342,1.791519 2.7994,2.580399 2.44981,8.0362898 -0.6405,9.9961098 -1.88661,1.19645 -4.80286,1.60548 -7.28213,1.02137 z m 6.32645,-1.06692 c 0.89823,-0.46224 1.51702,-1.0424 2.07581,-1.94623 0.70179,-1.13511 0.79611,-1.5252598 0.79611,-3.2928098 0,-2.372119 -0.67922,-3.845333 -2.25308,-4.886866 -1.85961,-1.230627 -4.80165,-1.579103 -7.2107,-0.854084 -2.81815,0.848137 -4.0177,2.556001 -4.0177,5.7202 0,4.2080398 2.35852,6.1809298 7.17233,5.9996198 1.66956,-0.0629 2.44695,-0.23021 3.43723,-0.73983 z m -5.38854,-2.12492 c -1.50587,-0.76475 -1.79917,-4.4402938 -0.46109,-5.7783728 0.86387,-0.863869 3.18535,-0.954535 4.06468,-0.158748 1.26738,1.146958 1.35868,4.321011 0.15677,5.4501408 -0.74113,0.69626 -2.81852,0.96528 -3.76036,0.48698 z m 2.93847,-0.52336 c 1.4527,-0.66189 1.64593,-3.7654808 0.30619,-4.9178808 -1.62238,-1.395507 -4.11232,-0.195463 -4.11232,1.981961 0,1.44404 0.49076,2.7049598 1.15761,2.9742598 0.80274,0.32417 1.88735,0.30848 2.64852,-0.0383 z m -17.035298,0.82808 V 9.2227032 h 2.24896 2.24896 v 2.3812498 2.38125 h 1.587501 1.587497 V 8.0320732 2.0789492 h -1.587497 -1.587501 v 2.248958 2.248959 h -2.24896 -2.24896 v -2.248959 -2.248958 h -1.5875 -1.5875 v 5.953124 5.9531298 h 1.5875 1.5875 z m -75.406244,0.92604 v -1.98438 h 1.96876 c 1.082818,0 2.034169,-0.10583 2.114113,-0.23518 0.07994,-0.12936 -0.435441,-0.8441498 -1.145302,-1.5884298 -1.562384,-1.638143 -2.143821,-2.791632 -2.143821,-4.253039 0,-2.679019 0.640124,-2.919182 7.780707,-2.919182 h 5.690319 l 0.832207,2.696819 c 0.53633,1.73801 0.903324,2.561106 1.032237,2.315104 0.110016,-0.209943 0.482475,-1.423511 0.827687,-2.696819 l 0.627657,-2.315104 h 1.906113 1.906113 l 0.867008,2.645117 c 0.488048,1.488962 0.947044,2.500872 1.050118,2.315104 0.100711,-0.181507 0.389448,-1.371809 0.641638,-2.645117 l 0.458526,-2.315104 h 2.080461 c 1.144251,0 2.080458,0.06388 2.080458,0.141962 0,0.133788 -2.369743,9.6891688 -2.933959,11.8304388 l -0.261438,0.99218 h -2.080696 -2.080698 l -0.537817,-1.78593 c -0.295799,-0.98227 -0.617959,-2.11336 -0.715912,-2.51355 -0.09795,-0.4001798 -0.260816,-0.7275998 -0.361919,-0.7275998 -0.101103,0 -0.457617,1.1357098 -0.792254,2.5237998 l -0.60843,2.52381 -2.12025,-0.0764 -2.12025,-0.0764 -1.937941,-6.3499998 -1.937941,-6.350005 -0.01566,1.918229 -0.01566,1.918229 h -1.836468 c -1.010058,0 -1.906512,0.113334 -1.992122,0.251853 -0.08561,0.138519 0.394534,0.823128 1.066985,1.521354 2.752809,2.8583198 3.010845,5.6022898 0.642017,6.8272598 -0.567941,0.2937 -1.686462,0.39537 -4.349564,0.39537 h -3.585014 z m 8.181783,0.77023 c 0.669319,-0.5632 0.813874,-0.88072 0.813061,-1.78594 -0.0012,-1.29344 -0.54623,-2.2745398 -2.221077,-3.9978328 -1.257563,-1.293936 -1.525556,-2.087681 -0.799003,-2.366485 0.230183,-0.08833 1.123152,-0.160599 1.984375,-0.160599 h 1.565861 v -1.455209 -1.455208 h -3.403504 c -3.324571,0 -3.419681,0.01618 -4.101042,0.697538 -1.242274,1.242275 -0.873711,3.321103 0.884875,4.991004 1.259874,1.196342 1.991583,2.4849618 1.621282,2.8552618 -0.166643,0.16664 -1.13424,0.34996 -2.150216,0.40737 l -1.847228,0.10437 v 1.42536 1.42535 h 3.419283 c 3.292528,0 3.44946,-0.0254 4.233333,-0.68498 z m 10.352834,-2.09315 c 0.460863,-1.7477698 0.8225,-2.6458298 1.065437,-2.6458298 0.238121,0 0.64903,0.95562 1.165627,2.7108098 l 0.79786,2.71081 1.74203,10e-4 1.74203,0.001 1.379765,-5.4900998 c 0.75887,-3.01956 1.441495,-5.698466 1.516946,-5.953127 0.119957,-0.404891 -0.0628,-0.463021 -1.455714,-0.463021 h -1.592892 l -0.275362,0.992187 c -0.151451,0.545703 -0.407276,1.659592 -0.568505,2.47531 -0.344885,1.744901 -0.641237,2.330391 -0.989153,1.95425 -0.133477,-0.144305 -0.624504,-1.423231 -1.091171,-2.84206 l -0.848486,-2.579687 h -1.547852 c -1.246649,0 -1.573957,0.0901 -1.682006,0.463021 -1.156888,3.992895 -1.566064,5.093229 -1.893997,5.093229 -0.243476,0 -0.66688,-0.964556 -1.219494,-2.778125 l -0.846525,-2.778125 h -1.542619 c -0.848441,0 -1.54262,0.08675 -1.54262,0.192773 0,0.106026 0.803672,2.78926 1.785938,5.962745 l 1.785937,5.7699698 1.708577,-0.0758 1.708577,-0.0758 z m 9.909392,2.18281 c 0.201332,-0.61846 1.155184,-3.5390898 2.119672,-6.4902788 l 1.753614,-5.365803 3.199759,0.07414 3.19975,0.07414 2.07285,6.213452 c 1.14006,3.4173898 2.07284,6.3046598 2.07284,6.4161398 0,0.11149 -1.06164,0.2027 -2.3592,0.2027 h -2.3592 l -0.37401,-1.12448 -0.37401,-1.12448 -1.99198,-0.0766 -1.991967,-0.0766 -0.336282,1.20109 -0.336283,1.20108 h -2.330805 -2.330804 z m 4.329247,-0.66145 0.409015,-1.12448 h 2.304523 2.30452 l 0.37395,1.12448 0.37394,1.12448 1.87908,0.0774 1.87908,0.0774 -0.63713,-2.06175 c -0.35042,-1.13397 -1.21597,-3.7881598 -1.92345,-5.8982118 l -1.28633,-3.836459 h -2.86434 -2.864345 l -1.811203,5.423959 c -0.996161,2.9831818 -1.879476,5.6379818 -1.962917,5.8995618 -0.137374,0.43066 0.01693,0.46817 1.632439,0.39688 l 1.784154,-0.0787 z M 52.04132,9.4151032 c 0,-0.0397 0.337916,-0.96244 0.750919,-2.050523 0.413003,-1.088087 0.840853,-2.216464 0.950763,-2.507506 0.15916,-0.421461 0.34919,-0.125269 0.93361,1.455208 1.29927,3.513691 1.38091,3.175001 -0.76538,3.175001 -1.02845,0 -1.869912,-0.0325 -1.869912,-0.0722 z m 2.910412,-0.54215 c 0,-0.47491 -0.89542,-2.529064 -1.0585,-2.428272 -0.11818,0.07304 -0.39739,0.668444 -0.62046,1.323118 l -0.405581,1.190314 h 1.042271 c 0.57325,0 1.04227,-0.0383 1.04227,-0.0852 z m 6.61459,-0.84088 v -6.482291 h 4.57826 c 4.37366,0 4.63859,0.03007 5.92835,0.672779 1.61644,0.805506 2.29236,1.975669 2.30099,3.983487 0.007,1.598065 -0.47193,2.443515 -1.87482,3.310545 -0.82533,0.5100798 -1.45305,0.6365198 -3.58539,0.7221598 l -2.58489,0.10383 v 2.08589 2.08589 h -2.38125 -2.38125 z m 4.23333,3.8364598 V 9.7518632 h 2.52408 c 2.00732,0 2.73781,-0.10903 3.56801,-0.53257 1.93477,-0.98704 2.53658,-2.792378 1.62089,-4.862431 -0.8688,-1.964064 -1.8113,-2.264931 -7.11767,-2.272102 l -4.29948,-0.0058 v 5.953123 5.9531298 h 1.85209 1.85208 z m 0.26458,-5.9531258 v -1.455208 h 1.93146 c 2.16061,0 2.56646,0.230121 2.56646,1.455208 0,1.225088 -0.40585,1.455209 -2.56646,1.455209 h -1.93146 z m 3.83646,0 c 0,-0.788875 -0.0102,-0.794233 -1.65364,-0.872521 l -1.65365,-0.07877 v 0.951292 0.951292 l 1.65365,-0.07877 c 1.64349,-0.07829 1.65364,-0.08365 1.65364,-0.872521 z m 5.15938,2.116666 v -6.482291 h 2.11666 2.11667 v 4.497917 4.4979138 h 1.96876 c 1.08282,0 2.03417,-0.10583 2.11411,-0.23518 0.0799,-0.12936 -0.43544,-0.8441498 -1.1453,-1.5884298 -1.56238,-1.638143 -2.14382,-2.791632 -2.14382,-4.253039 0,-2.470939 0.87146,-2.919182 5.6754,-2.919182 h 3.58502 v 1.984375 1.984375 h -1.83647 c -1.01006,0 -1.90651,0.113334 -1.99212,0.251853 -0.0856,0.138519 0.39453,0.823128 1.06698,1.521354 2.75281,2.8583238 3.01085,5.6022938 0.64202,6.8272638 -0.60891,0.31488 -1.92524,0.39536 -6.46623,0.39536 h -5.70168 z m 3.70416,0 v -5.953124 h -1.5875 -1.5875 v 5.953124 5.9531298 h 1.5875 1.5875 z m 8.71095,5.2681498 c 0.66932,-0.5632 0.81388,-0.88072 0.81306,-1.78594 -10e-4,-1.29344 -0.54623,-2.2745398 -2.22107,-3.9978328 -1.25756,-1.293936 -1.52556,-2.087681 -0.799,-2.366485 0.23018,-0.08833 1.12315,-0.160599 1.98437,-0.160599 h 1.56586 v -1.455209 -1.455208 h -3.4035 c -3.32457,0 -3.41968,0.01618 -4.10105,0.697538 -1.24227,1.242275 -0.87371,3.321103 0.88488,4.991004 1.25987,1.196342 1.99158,2.4849618 1.62128,2.8552618 -0.16664,0.16664 -1.13424,0.34996 -2.15021,0.40737 l -1.84723,0.10437 v 1.42536 1.42535 h 3.41928 c 3.29253,0 3.44946,-0.0254 4.23333,-0.68498 z M 117.3934,8.0320732 v -6.482291 h 4.57826 c 4.37366,0 4.63859,0.03007 5.92835,0.672779 1.61644,0.805506 2.29236,1.975669 2.30099,3.983487 0.007,1.598065 -0.47193,2.443515 -1.87482,3.310545 -0.82533,0.5100798 -1.45305,0.6365198 -3.58539,0.7221598 l -2.58489,0.10383 v 2.08589 2.08589 h -2.38125 -2.38125 z m 4.23333,3.8364598 V 9.7518632 h 2.52409 c 2.00732,0 2.7378,-0.10903 3.568,-0.53257 1.93477,-0.98704 2.53658,-2.792378 1.6209,-4.862431 -0.8688,-1.964064 -1.81131,-2.264931 -7.11767,-2.272102 l -4.29948,-0.0058 v 5.953123 5.9531298 h 1.85208 1.85208 z m 0.26459,-5.9531258 v -1.455208 h 1.93145 c 2.16061,0 2.56646,0.230121 2.56646,1.455208 0,1.225088 -0.40585,1.455209 -2.56646,1.455209 h -1.93145 z m 3.83645,0 c 0,-0.788875 -0.0102,-0.794233 -1.65364,-0.872521 l -1.65365,-0.07877 v 0.951292 0.951292 l 1.65365,-0.07877 c 1.64349,-0.07829 1.65364,-0.08365 1.65364,-0.872521 z"
       id="path854" />
    <path
       style="fill:#000000;stroke-width:0.264583"
       d="m 7.3587703,12.974112 c -4.137757,-1.92652 -4.158681,-8.0064335 -0.03475,-10.0961895 3.5853327,-1.8168251 7.7080137,0.517122 8.0756827,4.571834 0.406178,4.4794055 -3.912565,7.4465055 -8.0409357,5.5243555 z m 1.835052,-0.36629 c -0.327422,-0.0467 -0.595312,-0.22612 -0.595312,-0.39876 0,-0.35623 -1.547585,-1.12525 -2.050521,-1.01894 -0.181901,0.0385 -0.330729,-0.0544 -0.330729,-0.20627 0,-0.1519 -0.146539,-0.27618 -0.325641,-0.27618 -0.179103,0 0.03853,0.36417 0.483633,0.80928 0.851921,0.85192 2.698442,1.64306 3.148607,1.34902 0.145901,-0.0953 -0.0026,-0.21146 -0.330037,-0.25815 z m 2.7119797,-0.019 c 1.077683,-0.49738 2.582803,-1.88117 2.046112,-1.88117 -0.162299,0 -0.369874,0.121 -0.461278,0.2689 -0.0914,0.14789 -0.274474,0.20197 -0.406822,0.12018 -0.232782,-0.14387 -1.399686,0.57717 -2.474713,1.52915 -0.7030087,0.62254 -0.09479,0.60516 1.296701,-0.0371 z m -1.622309,-2.121361 c -0.122386,-0.6119297 -0.03532,-0.8327997 0.425501,-1.0794195 0.475178,-0.25431 0.672056,-0.22619 1.094763,0.1563598 0.483578,0.43763 0.542953,0.43886 0.961877,0.0199 0.418924,-0.4189298 0.393917,-0.4663298 -0.405112,-0.7679298 -1.172073,-0.44241 -1.174985,-1.363845 -0.0056,-1.771496 0.789531,-0.275231 0.81657,-0.324342 0.405111,-0.735801 -0.411459,-0.411459 -0.475286,-0.409754 -0.956279,0.02554 -0.422706,0.382544 -0.619584,0.410663 -1.094762,0.156355 -0.460823,-0.246623 -0.547887,-0.467491 -0.425501,-1.079421 0.133798,-0.66899 0.07538,-0.769352 -0.4478437,-0.769352 -0.528561,0 -0.588942,0.109418 -0.496647,0.89999 0.08643,0.74038 0.0033,0.932301 -0.468964,1.082181 -0.375921,0.119312 -0.744364,0.02804 -1.067567,-0.264451 -0.519697,-0.470319 -1.056045,-0.341526 -1.056045,0.253587 0,0.193917 0.297657,0.427284 0.661459,0.518592 0.903544,0.226776 0.906795,1.282126 0.0052,1.692916 -0.428278,0.19514 -0.602266,0.43967 -0.50086,0.7039298 0.194837,0.5077397 0.364231,0.5071597 1.093623,-0.004 0.865079,-0.6059298 1.600413,-0.1358398 1.444904,0.9237097 -0.09991,0.680731 -0.03161,0.807861 0.434015,0.807861 0.4689747,0 0.5293007,-0.11641 0.3987107,-0.769361 z M 5.5564873,6.8259855 c -0.156663,-1.011134 -0.242503,-1.167295 -0.411457,-0.748525 -0.272077,0.674369 -0.310336,3.113351 -0.0588,3.7486708 0.323542,0.8172107 0.694771,-1.5511298 0.470262,-3.0001458 z m 9.2597327,1.103558 c 0,-1.084471 -0.129611,-1.817008 -0.360467,-2.037291 -0.30079,-0.287015 -0.33069,-0.245402 -0.180608,0.251354 0.09892,0.327422 0.08254,0.595342 -0.03641,0.595379 -0.118947,3.6e-5 -0.227684,0.535817 -0.241638,1.190625 -0.01395,0.654811 0.08337,1.190561 0.216267,1.190561 0.132901,0 0.160702,0.26789 0.06178,0.5953098 -0.150082,0.4967597 -0.120182,0.5383697 0.180608,0.25135 0.230856,-0.22028 0.360467,-0.9528198 0.360468,-2.0372878 z M 6.6524303,4.6720395 c 0.394543,0.119179 1.94608,-0.69484 1.94608,-1.021016 0,-0.172088 0.208359,-0.367337 0.46302,-0.433887 0.341083,-0.08913 0.302784,-0.129083 -0.14543,-0.151692 -0.807198,-0.04072 -1.885239,0.541482 -2.69884,1.457516 -0.363802,0.409606 -0.465632,0.595334 -0.226288,0.412731 0.239344,-0.182603 0.537,-0.301246 0.661458,-0.263652 z m 6.8172027,-0.350116 c -0.522871,-0.587684 -2.350762,-1.535734 -2.980665,-1.545944 -0.228285,-0.0037 -0.132183,0.232784 0.264585,0.651077 0.342695,0.361288 0.757332,0.658944 0.921415,0.661458 0.164083,0.0025 0.440679,0.176088 0.614657,0.385719 0.173979,0.209632 0.474171,0.320577 0.667093,0.246546 0.192923,-0.07403 0.434265,5.02e-4 0.536317,0.165622 0.102051,0.165123 0.252271,0.233501 0.333821,0.151951 0.08155,-0.08155 -0.0792,-0.403943 -0.357223,-0.716429 z"
       id="path874" />
  </g>
</svg>
